<?xml version="1.0" encoding="iso-8859-1"?>
<!-- Uploaded to: SVG Repo, www.svgrepo.com, Generator: SVG Repo Mixer Tools -->
<!DOCTYPE svg PUBLIC "-//W3C//DTD SVG 1.1//EN" "http://www.w3.org/Graphics/SVG/1.1/DTD/svg11.dtd">
<svg fill="#000000" height="800px" width="800px" version="1.1" id="Capa_1" xmlns="http://www.w3.org/2000/svg" xmlns:xlink="http://www.w3.org/1999/xlink" 
	 viewBox="0 0 296.182 296.182" xml:space="preserve">
<g>
	<path d="M209.809,5.997C208.974,2.482,205.834,0,202.22,0H93.982c-3.613,0-6.753,2.482-7.589,5.997l-3.824,16.097h131.064
		L209.809,5.997z"/>
	<path d="M215.888,60.847l-1.172-23.752h-18.275C197.702,48.267,205.487,57.488,215.888,60.847z"/>
	<path d="M99.742,37.094H81.466l-1.172,23.753C90.695,57.488,98.481,48.267,99.742,37.094z"/>
	<path d="M216.659,76.477c-19.095-3.54-33.825-19.64-35.273-39.383h-66.589c-1.448,19.743-16.178,35.843-35.274,39.383
		L69.09,287.998c-0.105,2.133,0.669,4.215,2.141,5.762s3.514,2.422,5.649,2.422h57.128c4.232,0,7.692-3.375,7.797-7.606
		l4.736-190.281c0.021-0.841,0.709-1.513,1.551-1.513c0.842,0,1.53,0.671,1.551,1.513l4.736,190.281
		c0.105,4.231,3.565,7.606,7.797,7.606h57.127c2.135,0,4.177-0.875,5.649-2.422s2.246-3.629,2.141-5.762L216.659,76.477z"/>
</g>
</svg>