<?xml version="1.0" standalone="no"?>
<!DOCTYPE svg PUBLIC "-//W3C//DTD SVG 20010904//EN"
 "http://www.w3.org/TR/2001/REC-SVG-20010904/DTD/svg10.dtd">
<svg version="1.0" xmlns="http://www.w3.org/2000/svg"
 width="1169.000000pt" height="1280.000000pt" viewBox="0 0 1169.000000 1280.000000"
 preserveAspectRatio="xMidYMid meet">
<g transform="translate(0.000000,1280.000000) scale(0.100000,-0.100000)"
fill="#000000" stroke="none">
<path d="M5750 12784 c-69 -7 -165 -20 -215 -29 -452 -77 -462 -80 -615 -162
-113 -61 -153 -89 -293 -201 -255 -205 -286 -275 -248 -551 11 -79 17 -149 15
-156 -7 -17 -42 -31 -128 -51 -84 -19 -97 -25 -161 -79 -27 -23 -95 -68 -149
-101 -105 -63 -112 -67 -202 -130 -62 -43 -274 -168 -353 -209 -25 -12 -85
-52 -132 -86 -48 -35 -138 -93 -200 -129 -156 -90 -453 -288 -584 -390 -61
-47 -211 -186 -335 -310 -187 -187 -246 -253 -345 -388 -149 -201 -255 -375
-285 -467 -12 -38 -31 -86 -40 -105 -68 -135 -258 -744 -316 -1010 -19 -91
-47 -201 -60 -246 -20 -64 -27 -116 -34 -260 -5 -98 -18 -233 -29 -299 -11
-66 -34 -223 -51 -349 -19 -135 -37 -238 -46 -250 -8 -11 -14 -40 -14 -63 0
-24 -9 -76 -20 -115 -11 -40 -20 -91 -20 -113 0 -22 -9 -69 -20 -105 -37 -122
-89 -325 -109 -430 -11 -58 -29 -125 -40 -150 -38 -87 -102 -354 -142 -600 -6
-36 -18 -78 -26 -93 -8 -16 -12 -40 -9 -55 4 -16 0 -39 -10 -57 -11 -20 -19
-73 -25 -160 -4 -71 -15 -174 -24 -227 -8 -53 -20 -130 -25 -170 -5 -40 -14
-109 -20 -153 -27 -206 -31 -272 -31 -435 1 -132 -3 -190 -15 -235 -9 -33 -20
-76 -25 -95 -4 -19 -11 -116 -14 -215 -4 -106 -12 -199 -20 -225 -8 -25 -30
-160 -49 -300 -19 -140 -53 -357 -75 -481 -69 -392 -83 -562 -60 -755 l11 -93
-56 -52 c-38 -35 -59 -62 -65 -87 -10 -39 -29 -303 -38 -530 -6 -131 1 -207
33 -402 8 -47 14 -103 14 -126 0 -38 3 -42 48 -67 91 -49 133 -56 577 -102
471 -48 632 -55 886 -34 179 14 203 21 260 77 l48 47 11 135 c6 74 22 205 37
290 24 144 25 170 20 370 -6 217 1 320 27 414 8 28 20 98 26 154 12 108 54
315 90 437 11 38 20 92 20 120 0 27 11 91 24 140 42 154 76 350 76 438 0 51 8
115 20 162 11 43 20 102 20 131 0 28 14 105 31 170 17 66 44 176 60 246 15 71
35 138 43 150 8 13 23 80 35 150 38 226 57 236 65 36 3 -79 8 -287 11 -463 3
-176 12 -378 20 -450 8 -71 22 -224 30 -340 8 -115 22 -237 30 -270 19 -80 19
-127 -4 -254 -11 -58 -24 -149 -30 -201 -6 -52 -16 -122 -21 -155 -11 -61 -7
-168 11 -350 14 -146 16 -151 65 -191 40 -33 53 -38 142 -49 53 -7 147 -22
207 -34 169 -31 224 -39 445 -61 597 -58 957 -74 1519 -68 428 6 446 5 471
-13 14 -11 55 -24 90 -29 106 -15 444 -32 756 -37 328 -6 477 1 1044 54 330
30 445 36 805 43 440 8 502 13 730 56 239 46 240 46 250 112 3 20 10 62 16 92
21 106 28 217 29 460 0 271 7 336 49 490 16 58 36 148 45 200 8 52 29 172 45
265 54 306 90 738 97 1155 5 320 8 354 26 348 13 -5 112 -406 132 -538 8 -52
24 -121 35 -152 26 -75 111 -448 111 -488 0 -17 7 -44 15 -60 8 -16 20 -62 25
-102 6 -40 15 -89 20 -108 5 -19 14 -96 20 -171 5 -75 17 -156 26 -180 8 -24
17 -80 19 -124 1 -44 8 -93 14 -108 6 -16 11 -72 11 -125 0 -53 7 -142 15
-197 24 -164 29 -302 14 -370 -7 -33 -14 -105 -15 -160 0 -55 -7 -116 -13
-135 -14 -43 -34 -689 -25 -810 7 -94 14 -115 53 -147 21 -18 39 -22 92 -23
36 0 151 -11 255 -25 130 -17 233 -25 334 -24 80 0 181 -6 225 -13 100 -16
185 -16 295 0 46 6 150 12 230 12 195 0 269 12 295 44 67 84 66 83 76 188 6
57 15 119 21 138 16 55 32 330 29 503 -2 126 1 170 14 212 19 59 16 69 -38
138 l-30 39 22 64 c20 56 21 68 10 96 -14 36 -15 119 -28 1233 -7 623 -9 704
-24 737 -16 34 -17 80 -11 495 6 415 4 483 -15 728 -12 149 -31 338 -42 420
-10 83 -26 211 -34 285 -9 74 -25 180 -35 235 -22 111 -55 339 -65 455 -3 41
-13 93 -21 115 -7 22 -30 137 -49 255 -20 118 -56 301 -80 405 -25 105 -55
239 -66 300 -11 60 -27 121 -35 136 -7 15 -18 56 -24 92 -5 36 -25 130 -44
208 -19 79 -37 164 -41 189 -4 25 -16 61 -26 81 -9 19 -30 89 -44 154 -49 217
-285 1009 -352 1178 -64 164 -158 335 -270 491 -15 21 -44 65 -63 96 -198 323
-738 824 -1114 1035 -38 21 -162 82 -275 135 -241 113 -792 400 -1088 567
-115 64 -289 156 -389 204 -99 49 -183 91 -187 95 -3 4 1 23 9 43 108 250 89
411 -69 586 -72 80 -189 176 -256 210 -124 62 -424 133 -703 165 -199 22 -268
23 -448 4z"/>
</g>
</svg>
