<?xml version="1.0" standalone="no"?>
<!DOCTYPE svg PUBLIC "-//W3C//DTD SVG 20010904//EN"
 "http://www.w3.org/TR/2001/REC-SVG-20010904/DTD/svg10.dtd">
<svg version="1.0" xmlns="http://www.w3.org/2000/svg"
 width="1280.000000pt" height="1150.000000pt" viewBox="0 0 1280.000000 1150.000000"
 preserveAspectRatio="xMidYMid meet">
<metadata>
Created by potrace 1.15, written by Peter Selinger 2001-2017
</metadata>
<g transform="translate(0.000000,1150.000000) scale(0.100000,-0.100000)"
fill="#000000" stroke="none">
<path d="M10540 11494 c-785 -35 -1309 -113 -1734 -255 -554 -187 -822 -449
-903 -883 -20 -111 -23 -414 -5 -556 7 -52 37 -243 67 -425 82 -504 90 -624
59 -880 -9 -74 -14 -156 -10 -190 9 -88 53 -171 130 -243 77 -71 157 -113 284
-147 151 -40 184 -63 212 -150 11 -32 11 -85 1 -285 -6 -135 -16 -461 -22
-725 -11 -541 -23 -686 -78 -958 -79 -381 -206 -744 -405 -1152 -200 -410
-393 -722 -739 -1193 -292 -399 -482 -699 -645 -1019 -321 -631 -414 -1137
-286 -1545 91 -288 306 -513 649 -678 840 -406 1826 -210 2540 504 203 203
287 315 595 797 594 927 667 1019 1426 1810 349 362 463 488 617 676 306 376
424 601 483 928 22 121 25 465 6 590 -49 308 -99 488 -253 908 -241 653 -320
943 -337 1236 -13 215 8 357 75 499 47 100 119 170 278 269 139 86 204 149
225 220 35 116 20 273 -52 553 -55 212 -60 318 -24 570 71 507 71 796 1 1062
-59 226 -189 421 -354 532 l-66 45 -290 26 c-574 52 -642 56 -1005 59 -201 2
-399 2 -440 0z"/>
<path d="M4595 11003 c-16 -2 -111 -15 -210 -29 -144 -20 -250 -27 -535 -34
-334 -9 -551 -19 -1125 -55 -327 -20 -569 -33 -765 -40 -302 -12 -482 -45
-630 -118 -147 -72 -242 -191 -284 -352 -35 -139 -37 -341 -6 -804 19 -286 16
-329 -55 -861 -48 -362 -59 -500 -52 -679 6 -189 26 -290 77 -397 74 -153 233
-268 435 -315 213 -49 240 -111 240 -549 0 -306 -7 -361 -91 -775 -30 -148
-74 -389 -99 -535 -146 -876 -308 -1295 -842 -2175 -328 -542 -435 -761 -528
-1086 -60 -208 -110 -493 -121 -689 -16 -287 128 -599 411 -886 240 -243 527
-408 802 -460 349 -65 882 109 1267 414 103 82 305 282 399 395 202 244 327
435 649 990 249 431 325 558 442 737 273 417 516 704 842 995 356 317 484 453
577 612 128 219 164 426 174 1000 7 421 -11 690 -68 1003 -46 252 -84 369
-209 635 -171 362 -205 543 -130 684 37 69 97 129 251 248 242 187 294 282
293 528 -1 154 -20 237 -109 470 -99 260 -156 433 -171 513 -19 109 -17 321 6
577 11 121 20 255 20 297 0 394 -194 671 -518 737 -50 10 -271 13 -337 4z"/>
</g>
</svg>
