<?xml version="1.0" encoding="iso-8859-1"?>
<!-- Uploaded to: SVG Repo, www.svgrepo.com, Generator: SVG Repo Mixer Tools -->
<svg fill="#000000" height="800px" width="800px" version="1.1" id="Layer_1" xmlns="http://www.w3.org/2000/svg" xmlns:xlink="http://www.w3.org/1999/xlink" 
	 viewBox="0 0 511.998 511.998" xml:space="preserve">
<g>
	<g>
		<path d="M511.846,174.185c-0.017-0.222,0.068-0.435,0.034-0.657l-8.533-51.2c-0.418-2.492-1.92-4.685-4.113-5.965
			c-2.176-1.28-4.821-1.519-7.202-0.657c-42.368,15.317-195.644,33.63-236.032,33.63c-40.397,0-193.673-18.313-236.041-33.63
			c-2.364-0.853-5.009-0.614-7.202,0.657c-2.193,1.28-3.695,3.473-4.113,5.965l-8.533,51.2c-0.034,0.222,0.051,0.435,0.034,0.657
			C0.119,174.441,0,174.671,0,174.935c0,0.444,0.188,0.828,0.247,1.254c0.077,0.512,0.137,0.99,0.299,1.476
			c0.239,0.691,0.606,1.297,1.007,1.894c0.179,0.282,0.247,0.631,0.461,0.888c0.077,0.085,0.196,0.119,0.273,0.205
			c0.563,0.614,1.246,1.067,1.963,1.493c0.29,0.171,0.521,0.418,0.828,0.555c1.058,0.478,2.219,0.768,3.456,0.768
			c18.56,0,118.161,30.43,169.574,94.618c26.522,33.118,35.576,69.564,26.897,108.314c-0.009,0.043,0,0.077-0.009,0.12
			c-0.179,0.862-0.188,1.732-0.102,2.603c0.034,0.273,0.077,0.538,0.137,0.811c0.137,0.674,0.358,1.323,0.657,1.963
			c0.094,0.196,0.154,0.401,0.256,0.589c0.043,0.068,0.051,0.137,0.094,0.205c0.427,0.708,0.964,1.314,1.57,1.86
			c0.154,0.145,0.333,0.247,0.503,0.375c0.58,0.461,1.212,0.836,1.894,1.126c0.145,0.06,0.239,0.171,0.384,0.23
			c0.102,0.034,0.213,0.017,0.307,0.051c0.845,0.273,1.724,0.469,2.637,0.469h85.333c0.913,0,1.783-0.196,2.628-0.469
			c0.102-0.034,0.205-0.017,0.307-0.051c0.136-0.06,0.239-0.171,0.375-0.222c0.691-0.299,1.34-0.674,1.929-1.143
			c0.162-0.128,0.333-0.222,0.478-0.358c0.606-0.546,1.152-1.161,1.587-1.877c0.034-0.068,0.051-0.145,0.085-0.213
			c0.102-0.162,0.154-0.35,0.23-0.521c0.324-0.657,0.546-1.34,0.683-2.039c0.051-0.256,0.102-0.503,0.128-0.768
			c0.085-0.888,0.085-1.775-0.102-2.654c-0.009-0.026,0-0.051,0-0.085c-8.678-38.75,0.367-75.196,26.888-108.314
			c51.413-64.188,151.014-94.618,169.583-94.618c1.237,0,2.389-0.29,3.456-0.768c0.307-0.137,0.529-0.384,0.819-0.555
			c0.717-0.427,1.408-0.879,1.963-1.493c0.077-0.085,0.196-0.119,0.273-0.205c0.222-0.256,0.282-0.606,0.469-0.888
			c0.401-0.597,0.759-1.203,0.998-1.894c0.162-0.486,0.222-0.964,0.299-1.476c0.068-0.427,0.256-0.811,0.256-1.254
			C512,174.671,511.872,174.441,511.846,174.185z M221.645,326.641c-0.008,0.094-0.017,0.196-0.026,0.29
			c-4.992-20.745-15.07-40.627-30.191-59.511c-29.116-36.352-71.287-62.31-108.305-78.797c2.406,0.367,4.787,0.751,7.108,1.152
			c1.425,0.247,2.91,0.469,4.301,0.734c4.437,0.828,8.755,1.707,12.885,2.662c0.077,0.017,0.154,0.034,0.23,0.051
			c4.053,0.947,7.945,1.946,11.716,2.995c1.254,0.358,2.441,0.734,3.669,1.101c2.526,0.742,5.043,1.502,7.441,2.304
			c1.357,0.452,2.662,0.922,3.977,1.382c2.167,0.768,4.292,1.545,6.357,2.347c1.297,0.503,2.569,1.024,3.823,1.545
			c1.971,0.811,3.891,1.647,5.76,2.5c1.178,0.538,2.347,1.067,3.49,1.613c1.894,0.913,3.712,1.852,5.504,2.799
			c0.973,0.512,1.98,1.024,2.927,1.545c2.074,1.161,4.062,2.347,5.999,3.541c0.546,0.341,1.143,0.666,1.673,1.007
			c2.449,1.562,4.779,3.157,7.006,4.779c0.529,0.393,1.015,0.794,1.536,1.186c1.647,1.246,3.26,2.492,4.787,3.763
			c0.717,0.597,1.382,1.212,2.074,1.809c1.246,1.092,2.475,2.193,3.635,3.302c0.7,0.666,1.365,1.34,2.039,2.005
			c1.075,1.084,2.116,2.167,3.115,3.251c0.623,0.691,1.246,1.374,1.843,2.065c0.973,1.109,1.894,2.227,2.79,3.354
			c0.529,0.666,1.067,1.331,1.579,1.997c0.939,1.237,1.809,2.475,2.671,3.721c0.375,0.555,0.785,1.101,1.152,1.655
			c2.381,3.601,4.446,7.228,6.229,10.837c0.282,0.58,0.538,1.161,0.811,1.741c0.572,1.22,1.135,2.449,1.647,3.669
			c0.29,0.683,0.555,1.365,0.828,2.048c0.444,1.118,0.87,2.227,1.271,3.336c0.247,0.7,0.486,1.391,0.717,2.091
			c0.367,1.092,0.708,2.176,1.033,3.26c0.196,0.674,0.401,1.348,0.589,2.022c0.307,1.118,0.589,2.227,0.862,3.328
			c0.145,0.597,0.299,1.203,0.435,1.792c0.299,1.297,0.555,2.577,0.794,3.849c0.077,0.375,0.162,0.759,0.23,1.126
			c0.299,1.638,0.555,3.243,0.776,4.821c0.06,0.401,0.094,0.794,0.154,1.186c0.145,1.169,0.29,2.33,0.41,3.456
			c0.06,0.563,0.111,1.109,0.162,1.664c0.085,0.939,0.171,1.877,0.239,2.79c0.034,0.572,0.077,1.126,0.111,1.69
			c0.051,0.853,0.094,1.69,0.137,2.509c0.026,0.555,0.051,1.101,0.068,1.638c0.026,0.811,0.051,1.604,0.068,2.381
			c0.017,0.469,0.026,0.956,0.034,1.408c0.017,0.836,0.026,1.63,0.034,2.415c0,0.358,0.009,0.742,0.009,1.101
			c0,1.067,0.009,2.091,0.009,3.055C221.867,322.221,221.781,324.439,221.645,326.641z M320.563,267.42
			c-15.121,18.884-25.199,38.775-30.191,59.511c-0.009-0.111-0.026-0.222-0.026-0.324c-0.137-2.185-0.213-4.395-0.213-6.605v-3.123
			c0.008-0.282,0.008-0.597,0.008-0.887c0.009-0.828,0.017-1.681,0.034-2.569c0.008-0.444,0.017-0.922,0.034-1.382
			c0.017-0.794,0.043-1.596,0.068-2.432c0.026-0.512,0.043-1.041,0.068-1.57c0.043-0.836,0.085-1.69,0.145-2.56
			c0.034-0.546,0.068-1.101,0.111-1.664c0.068-0.93,0.154-1.886,0.239-2.842c0.051-0.538,0.094-1.058,0.154-1.604
			c0.119-1.143,0.264-2.313,0.418-3.49c0.051-0.393,0.094-0.768,0.145-1.169c0.222-1.579,0.486-3.191,0.785-4.83
			c0.06-0.35,0.137-0.708,0.205-1.05c0.247-1.297,0.512-2.594,0.811-3.917c0.137-0.589,0.29-1.186,0.435-1.775
			c0.273-1.118,0.555-2.227,0.87-3.362c0.179-0.657,0.384-1.323,0.58-1.988c0.324-1.092,0.666-2.185,1.033-3.285
			c0.239-0.691,0.469-1.382,0.725-2.082c0.393-1.109,0.828-2.227,1.271-3.354c0.265-0.674,0.529-1.348,0.811-2.022
			c0.521-1.229,1.084-2.458,1.664-3.686c0.273-0.58,0.521-1.152,0.811-1.732c1.775-3.61,3.84-7.236,6.221-10.837
			c0.367-0.555,0.768-1.101,1.152-1.655c0.862-1.246,1.741-2.492,2.679-3.729c0.503-0.657,1.041-1.323,1.57-1.98
			c0.896-1.126,1.818-2.244,2.79-3.362c0.597-0.691,1.22-1.374,1.843-2.057c1.007-1.092,2.048-2.185,3.123-3.268
			c0.666-0.666,1.331-1.331,2.031-1.988c1.161-1.118,2.389-2.219,3.644-3.311c0.691-0.606,1.357-1.212,2.065-1.809
			c1.536-1.271,3.157-2.526,4.804-3.78c0.521-0.384,0.99-0.785,1.519-1.169c2.227-1.621,4.557-3.217,7.006-4.779
			c0.538-0.341,1.126-0.666,1.664-0.998c1.946-1.203,3.934-2.389,6.016-3.55c0.939-0.521,1.937-1.024,2.91-1.536
			c1.792-0.947,3.618-1.894,5.521-2.807c1.135-0.546,2.304-1.075,3.482-1.613c1.869-0.853,3.789-1.69,5.769-2.509
			c1.254-0.521,2.517-1.033,3.814-1.536c2.057-0.802,4.19-1.579,6.357-2.347c1.314-0.461,2.62-0.93,3.977-1.382
			c2.406-0.802,4.924-1.562,7.458-2.313c1.22-0.358,2.398-0.734,3.652-1.092c3.772-1.05,7.663-2.048,11.716-2.995
			c0.077-0.017,0.154-0.034,0.23-0.051c4.139-0.956,8.448-1.843,12.885-2.662c1.391-0.265,2.867-0.486,4.292-0.734
			c2.33-0.401,4.71-0.785,7.117-1.152C391.851,205.109,349.679,231.068,320.563,267.42z"/>
	</g>
</g>
</svg>